<svg xmlns="http://www.w3.org/2000/svg" width="134" height="133" viewBox="0 0 134 133" fill="none"><g clip-path="url(#clip0_1204_1645)"><path d="M27.1 8.8667H31.5333V13.3H27.1V8.8667Z" fill="#FA991D"></path><path d="M35.9667 8.8667H40.4V13.3H35.9667V8.8667Z" fill="#FA991D"></path><path d="M44.8333 8.8667H49.2666V13.3H44.8333V8.8667Z" fill="#FA991D"></path><path d="M2.71667 133H71.4333C72.3295 133 73.138 132.46 73.4812 131.632C73.8243 130.804 73.6338 129.85 73.0006 129.216L4.28392 60.4993C3.64966 59.8661 2.6961 59.6756 1.8681 60.0187C1.0401 60.3618 0.5 61.1703 0.5 62.0665V130.783C0.5 132.007 1.49252 133 2.71667 133ZM4.93333 67.4177L66.0822 128.566H4.93333V67.4177Z" fill="#FA991D"></path><path d="M39.7506 115.916L17.5839 93.7493C16.9496 93.1161 15.9961 92.9256 15.1681 93.2687C14.3401 93.6118 13.8 94.4203 13.8 95.3165V117.483C13.8 118.707 14.7925 119.7 16.0167 119.7H38.1833C39.0795 119.7 39.8881 119.16 40.2312 118.332C40.5743 117.504 40.3838 116.55 39.7506 115.916ZM18.2333 115.267V100.668L32.8322 115.267H18.2333Z" fill="#FA991D"></path><path d="M131.013 18.9218C134.327 15.6076 134.327 10.2348 131.013 6.92059C127.699 3.60641 122.326 3.60641 119.012 6.92059L115.687 10.2456C115.259 4.47987 110.465 0.015153 104.683 0H29.3167C23.1981 0.00757651 18.2409 4.96477 18.2333 11.0833V68.7167H22.6667V11.0833C22.6667 7.4109 25.6442 4.43333 29.3167 4.43333H104.683C108.356 4.43333 111.333 7.4109 111.333 11.0833V14.5988L90.4655 35.4667H74.1728C69.8022 24.2762 57.9288 17.939 46.1993 20.5388C34.4687 23.1375 26.3835 33.8962 27.1487 45.8854C27.9139 57.8758 37.3023 67.5196 49.2667 68.6063V77.5833C49.2667 78.8075 50.2592 79.8 51.4833 79.8H100.25C101.474 79.8 102.467 78.8075 102.467 77.5833V47.4678L111.333 38.6012V84.2333H60.35C59.1259 84.2333 58.1333 85.2259 58.1333 86.45V104.183C58.1333 105.407 59.1259 106.4 60.35 106.4H111.333V108.617C111.333 112.289 108.356 115.267 104.683 115.267H69.2167V119.7H104.683C110.802 119.692 115.759 114.735 115.767 108.617V106.4H131.283C132.507 106.4 133.5 105.407 133.5 104.183V86.45C133.5 85.2259 132.507 84.2333 131.283 84.2333H115.767V34.1678L131.013 18.9218ZM122.146 10.0551C123.162 8.9933 124.673 8.56577 126.096 8.93594C127.517 9.3061 128.627 10.4166 128.997 11.8377C129.368 13.26 128.94 14.7709 127.878 15.7873L126.85 16.8155L121.118 11.0833L122.146 10.0551ZM71.4333 44.3333C71.4193 54.4869 63.7897 63.0148 53.7 64.1524V39.9H70.9192C71.2558 41.3536 71.429 42.8408 71.4333 44.3333ZM49.2667 37.6833V64.1524C39.7582 63.1057 32.331 55.4556 31.5647 45.9201C30.7984 36.3845 36.9083 27.6477 46.1278 25.0955C55.3473 22.5433 65.081 26.8944 69.3271 35.4667H51.4833C50.2592 35.4667 49.2667 36.4592 49.2667 37.6833ZM98.0333 75.3667H53.7V68.6063C60.5351 68.0077 66.7976 64.5463 70.9409 59.0772C75.083 53.608 76.7185 46.6409 75.4435 39.9H86.0322L80.9494 44.9827C80.6399 45.2912 80.4288 45.6863 80.3444 46.116L78.1277 57.1993C77.9978 57.8498 78.1656 58.5252 78.5866 59.0382C79.0077 59.5513 79.6365 59.85 80.3 59.85C80.4494 59.8511 80.5976 59.8359 80.7438 59.8056L91.8271 57.589C92.2557 57.5045 92.6508 57.2935 92.9592 56.9839L98.0333 51.9012V75.3667ZM83.8772 51.045L86.8883 54.0561L83.1195 54.8073L83.8772 51.045ZM120.2 88.6667V93.1H124.633V88.6667H129.067V101.967H62.5667V88.6667H67V93.1H71.4333V88.6667H75.8667V93.1H80.3V88.6667H84.7333V93.1H89.1667V88.6667H93.6V93.1H98.0333V88.6667H102.467V93.1H106.9V88.6667H111.333V93.1H115.767V88.6667H120.2ZM91.3833 52.2822L85.6512 46.55L117.983 14.2178L123.715 19.95L91.3833 52.2822Z" fill="#FA991D"></path></g><defs><clipPath id="clip0_1204_1645"><rect width="133" height="133" fill="white" transform="translate(0.5)"></rect></clipPath></defs></svg>