<svg xmlns="http://www.w3.org/2000/svg" width="134" height="133" viewBox="0 0 134 133" fill="none"><g clip-path="url(#clip0_1204_1728)"><path d="M9.36667 110.869H13.8V106.435H9.36667C6.9178 106.435 4.93333 104.451 4.93333 102.002V13.3354C4.93333 10.8866 6.9178 8.90208 9.36667 8.90208H106.9C109.349 8.90208 111.333 10.8866 111.333 13.3354V17.7687H115.767V13.3354C115.767 8.4388 111.797 4.46875 106.9 4.46875H9.36667C4.47005 4.46875 0.5 8.4388 0.5 13.3354V102.002C0.5 106.899 4.47005 110.869 9.36667 110.869Z" fill="#FA991D"></path><path d="M9.36691 13.3354H13.8002V17.7688H9.36691V13.3354Z" fill="#FA991D"></path><path d="M18.2333 13.3354H22.6666V17.7688H18.2333V13.3354Z" fill="#FA991D"></path><path d="M27.1002 13.3354H31.5335V17.7688H27.1002V13.3354Z" fill="#FA991D"></path><path d="M18.2333 119.735C18.2333 124.632 22.2033 128.602 27.0999 128.602H124.633C129.53 128.602 133.5 124.632 133.5 119.735V31.0688C133.5 26.1722 129.53 22.2021 124.633 22.2021H27.0999C22.2033 22.2021 18.2333 26.1722 18.2333 31.0688V119.735ZM22.6666 31.0688C22.6666 28.62 24.6511 26.6355 27.0999 26.6355H124.633C127.082 26.6355 129.067 28.62 129.067 31.0688V119.735C129.067 122.184 127.082 124.169 124.633 124.169H27.0999C24.6511 124.169 22.6666 122.184 22.6666 119.735V31.0688Z" fill="#FA991D"></path><path d="M27.1002 31.0688H31.5335V35.5022H27.1002V31.0688Z" fill="#FA991D"></path><path d="M35.9666 31.0688H40.3999V35.5022H35.9666V31.0688Z" fill="#FA991D"></path><path d="M44.8335 31.0688H49.2668V35.5022H44.8335V31.0688Z" fill="#FA991D"></path><path d="M27.1002 39.9355H124.634V44.3689H27.1002V39.9355Z" fill="#FA991D"></path><path d="M27.1002 51.0186H44.8336V55.4519H27.1002V51.0186Z" fill="#FA991D"></path><path d="M27.1002 59.8853H40.4002V64.3186H27.1002V59.8853Z" fill="#FA991D"></path><path d="M75.8669 68.752C67.2967 68.752 60.3502 75.6984 60.3502 84.2686C60.3502 92.8388 67.2967 99.7852 75.8669 99.7852C84.4371 99.7852 91.3836 92.8388 91.3836 84.2686C91.3736 75.7034 84.4321 68.7619 75.8669 68.752ZM75.8669 95.3519C69.7461 95.3519 64.7836 90.3893 64.7836 84.2686C64.7836 78.1478 69.7461 73.1853 75.8669 73.1853C81.9877 73.1853 86.9503 78.1478 86.9503 84.2686C86.9425 90.3866 81.9849 95.3441 75.8669 95.3519Z" fill="#FA991D"></path><path d="M111.333 77.6184C111.333 76.3937 110.341 75.4018 109.116 75.4018H103.258C102.788 73.9454 102.203 72.5284 101.504 71.1679L105.647 67.0277C106.512 66.1616 106.512 64.759 105.647 63.8928L96.242 54.4875C95.3759 53.623 93.9733 53.623 93.1071 54.4875L88.9669 58.6282C87.6043 57.9322 86.1884 57.347 84.7331 56.8771V51.0184C84.7331 49.7937 83.7412 48.8018 82.5164 48.8018H69.2164C67.9917 48.8018 66.9998 49.7937 66.9998 51.0184V56.8771C65.5445 57.347 64.1286 57.9322 62.7659 58.6282L58.6258 54.4875C57.7596 53.623 56.357 53.623 55.4908 54.4875L46.0855 63.8928C45.221 64.759 45.221 66.1616 46.0855 67.0277L50.2263 71.1679C50.0412 71.5309 49.8627 71.895 49.6943 72.263C49.2265 73.2848 48.8198 74.3322 48.4751 75.4018H42.6164C41.3917 75.4018 40.3998 76.3937 40.3998 77.6184V90.9184C40.3998 92.1431 41.3917 93.1351 42.6164 93.1351H48.4751C48.9445 94.5914 49.5297 96.0084 50.2285 97.3689L46.0855 101.509C45.221 102.375 45.221 103.778 46.0855 104.644L55.4908 114.049C56.357 114.914 57.7596 114.914 58.6258 114.049L62.7659 109.909C64.1286 110.605 65.5445 111.19 66.9998 111.66V117.518C66.9998 118.743 67.9917 119.735 69.2164 119.735H82.5164C83.7412 119.735 84.7331 118.743 84.7331 117.518V111.66C86.1884 111.19 87.6043 110.605 88.9669 109.909L93.1071 114.049C93.9733 114.914 95.3759 114.914 96.242 114.049L105.647 104.644C106.512 103.778 106.512 102.375 105.647 101.509L101.504 97.3689C102.203 96.0084 102.788 94.5914 103.258 93.1351H109.116C110.341 93.1351 111.333 92.1431 111.333 90.9184V77.6184ZM106.9 88.7018H101.593C100.582 88.7018 99.7 89.3862 99.4473 90.3643C98.881 92.5643 98.0082 94.6757 96.8538 96.633C96.3401 97.503 96.4814 98.6114 97.1952 99.3262L100.943 103.076L94.6743 109.348L90.9243 105.597C90.2088 104.882 89.1005 104.742 88.2299 105.256C86.2726 106.41 84.1623 107.284 81.9623 107.849C80.9842 108.102 80.2998 108.984 80.2998 109.995V115.302H71.4331V109.995C71.4331 108.984 70.7487 108.102 69.7706 107.849C67.5706 107.284 65.4603 106.41 63.503 105.256C62.6324 104.742 61.5241 104.882 60.8086 105.597L57.0586 109.348L50.7899 103.076L54.5377 99.3262C55.2514 98.6114 55.3928 97.503 54.879 96.633C53.7247 94.6757 52.8519 92.5643 52.2855 90.3643C52.0328 89.3862 51.1506 88.7018 50.1398 88.7018H44.8331V79.8351H50.1398C51.1506 79.8351 52.0328 79.1507 52.2855 78.1726C52.6435 76.7772 53.1262 75.4184 53.7269 74.11C54.0733 73.3513 54.4579 72.6115 54.879 71.8933C55.3911 71.0227 55.2509 69.9161 54.5377 69.2017L50.7899 65.4517L57.0586 59.1802L60.8086 62.9319C61.5241 63.6468 62.6324 63.7864 63.503 63.2716C65.4603 62.1184 67.5706 61.2439 69.7706 60.6781C70.7487 60.426 71.4331 59.5426 71.4331 58.5335V53.2351H80.2998V58.5418C80.2998 59.5526 80.9842 60.4348 81.9623 60.6875C84.1623 61.2533 86.2726 62.1267 88.2299 63.281C89.1005 63.7953 90.2088 63.6545 90.9243 62.9397L94.6743 59.1891L100.943 65.4606L97.1952 69.2106C96.4814 69.9255 96.3401 71.0338 96.8538 71.9039C98.0082 73.8612 98.881 75.9725 99.4473 78.1726C99.7 79.1507 100.582 79.8351 101.593 79.8351H106.9V88.7018Z" fill="#FA991D"></path><path d="M111.333 115.302H124.634V119.735H111.333V115.302Z" fill="#FA991D"></path></g><defs><clipPath id="clip0_1204_1728"><rect width="133" height="133" fill="white" transform="translate(0.5)"></rect></clipPath></defs></svg>